<?xml version="1.0" standalone="no"?>
<!DOCTYPE svg PUBLIC "-//W3C//DTD SVG 20010904//EN"
 "http://www.w3.org/TR/2001/REC-SVG-20010904/DTD/svg10.dtd">
<svg version="1.0" xmlns="http://www.w3.org/2000/svg"
 width="1100.000000pt" height="1100.000000pt" viewBox="0 0 1100.000000 1100.000000"
 preserveAspectRatio="xMidYMid meet">
<metadata>
Created by potrace 1.14, written by Peter Selinger 2001-2017
</metadata>
<g transform="translate(0.000000,1100.000000) scale(0.100000,-0.100000)"
fill="#000000" stroke="none">
<path d="M5218 10995 c-2 -1 -56 -6 -121 -9 -65 -4 -126 -9 -135 -10 -20 -4
-124 -17 -171 -22 -19 -2 -48 -5 -65 -8 -17 -3 -53 -8 -81 -11 -45 -6 -152
-26 -215 -40 -14 -3 -38 -8 -55 -11 -460 -83 -1116 -330 -1570 -589 -55 -32
-119 -68 -142 -81 -121 -69 -611 -414 -643 -453 -3 -3 -32 -28 -65 -56 -205
-171 -424 -388 -640 -636 -46 -53 -206 -255 -267 -339 -168 -230 -333 -501
-461 -760 -99 -198 -113 -230 -189 -415 -124 -301 -262 -778 -308 -1058 -5
-34 -12 -73 -15 -86 -2 -14 -9 -61 -15 -105 -6 -45 -13 -92 -15 -106 -3 -14
-7 -54 -10 -90 -3 -36 -8 -74 -10 -85 -26 -124 -26 -835 -1 -1050 3 -22 8 -62
11 -90 12 -116 18 -156 36 -270 131 -790 420 -1520 866 -2185 115 -172 329
-449 445 -574 25 -28 58 -64 73 -81 122 -135 366 -370 499 -480 26 -22 53 -45
59 -51 7 -5 80 -61 162 -124 467 -354 998 -637 1556 -828 142 -49 381 -119
484 -142 97 -22 334 -70 372 -75 21 -3 49 -8 63 -10 14 -3 48 -7 75 -11 28 -3
60 -7 71 -9 12 -2 46 -6 75 -10 30 -3 70 -8 89 -10 218 -26 931 -26 1080 -1
25 5 73 11 160 21 585 69 1226 266 1775 544 925 470 1671 1157 2219 2044 36
59 66 111 66 116 0 5 3 11 8 13 28 12 256 484 357 738 118 298 257 801 300
1085 3 22 10 67 15 100 16 106 19 129 25 200 4 39 9 84 11 100 25 196 26 799
0 1030 -2 17 -6 62 -10 100 -4 39 -9 81 -11 95 -5 24 -7 38 -20 130 -6 41 -38
222 -50 280 -3 14 -8 38 -11 54 -30 167 -163 608 -249 826 -190 482 -481 995
-771 1359 -137 172 -170 212 -253 305 -160 178 -388 400 -550 536 -30 25 -68
57 -85 71 -133 112 -521 382 -681 474 -212 122 -528 277 -745 363 -194 77
-484 175 -600 202 -19 4 -78 19 -130 33 -52 14 -111 28 -130 31 -19 3 -44 8
-55 10 -107 23 -238 47 -275 52 -25 3 -56 7 -70 9 -14 2 -50 7 -80 10 -30 4
-66 8 -80 10 -14 2 -54 7 -90 10 -36 3 -87 9 -115 12 -51 5 -692 13 -697 8z"/>
</g>
</svg>
